<svg xmlns="http://www.w3.org/2000/svg" xmlns:xlink="http://www.w3.org/1999/xlink" version="1.1" style="enable-background:new 0 0 490 490;" xml:space="preserve" width="490" height="490"><rect id="backgroundrect" width="100%" height="100%" x="0" y="0" fill="none" stroke="none"/>
















<g class="currentLayer" style=""><title>Layer 1</title><path d="M386.733,114.884h-51.497V90.235C335.236,40.48,294.756,0,245,0c-49.755,0-90.235,40.48-90.235,90.235v24.649h-51.497  L68.469,490h353.063L386.733,114.884z M175.616,90.235c0-38.26,31.123-69.384,69.384-69.384c38.262,0,69.385,31.124,69.385,69.384  v24.649H175.616V90.235z M122.266,135.735h32.498v61.239h-11.912v20.851h44.674v-20.851h-11.911v-61.239h138.769v61.239h-11.912  v20.851h44.676v-20.851h-11.912v-61.239h32.498l30.93,333.414H91.336L122.266,135.735z" id="svg_1" class="selected" stroke="#ffa100" stroke-opacity="1" fill="#ffa100" fill-opacity="1"/><g id="svg_2">
</g><g id="svg_3">
</g><g id="svg_4">
</g><g id="svg_5">
</g><g id="svg_6">
</g><g id="svg_7">
</g><g id="svg_8">
</g><g id="svg_9">
</g><g id="svg_10">
</g><g id="svg_11">
</g><g id="svg_12">
</g><g id="svg_13">
</g><g id="svg_14">
</g><g id="svg_15">
</g><g id="svg_16">
</g></g></svg>